# 3ds Max Wavefront OBJ Exporter v0.97b - (c)2007 guruware
# 创建的文件:08.04.2020 16:51:53

mtllib colorful cube.mtl

#
# object colorful_cube
#

v  -14.1774 0.0000 -38.6054
v  14.0016 0.0000 -38.6054
v  14.0016 0.0000 -10.4264
v  -14.1774 0.0000 -10.4264
v  14.0016 28.1788 -10.4264
v  14.0016 28.1788 -38.6054
v  -14.1774 28.1788 -38.6054
v  -14.1774 28.1788 -10.4264
# 8 vertices

vn 0.0000 -1.0000 -0.0000
vn 0.0000 1.0000 -0.0000
vn 0.0000 0.0000 1.0000
vn 1.0000 0.0000 -0.0000
vn 0.0000 0.0000 -1.0000
vn -1.0000 0.0000 -0.0000
# 6 vertex normals

vt 0.9060 0.9923 0.0000
vt 0.4853 0.9923 0.0000
vt 0.4853 0.5563 0.0000
vt 0.9060 0.5563 0.0000
vt 0.9193 0.3066 0.0000
vt 0.9169 0.5436 0.0000
vt 0.7192 0.5416 0.0000
vt 0.7216 0.3045 0.0000
vt 0.6940 0.2259 0.0000
vt 0.6940 0.5386 0.0000
vt 0.3827 0.5386 0.0000
vt 0.3827 0.2259 0.0000
vt 0.3777 0.2373 0.0000
vt 0.3810 0.5487 0.0000
vt 0.0047 0.5527 0.0000
vt 0.0015 0.2412 0.0000
vt 0.9440 0.0667 0.0000
vt 0.9440 0.2896 0.0000
vt 0.7173 0.2896 0.0000
vt 0.7173 0.0667 0.0000
vt 0.4811 0.5572 0.0000
vt 0.4811 0.9923 0.0000
vt 0.0031 0.9923 0.0000
vt 0.0031 0.5572 0.0000
# 24 texture coords

o colorful_cube
g colorful_cube
usemtl Material__25
s off
f 1/1/1 2/2/1 3/3/1 4/4/1 
f 5/5/2 6/6/2 7/7/2 8/8/2 
f 3/9/3 5/10/3 8/11/3 4/12/3 
f 2/13/4 6/14/4 5/15/4 3/16/4 
f 1/17/5 7/18/5 6/19/5 2/20/5 
f 4/21/6 8/22/6 7/23/6 1/24/6 
# 6 polygons

